<?xml version="1.0" standalone="no"?><!DOCTYPE svg PUBLIC "-//W3C//DTD SVG 1.1//EN" "http://www.w3.org/Graphics/SVG/1.1/DTD/svg11.dtd"><svg class="icon" width="200px" height="200.00px" viewBox="0 0 1024 1024" version="1.1" xmlns="http://www.w3.org/2000/svg"><path fill="#333333" d="M481.2 126.5c50.4-39.2 89.6-18.2 89.6 44.8v686c0 60.2-39.2 78.4-84 39.2L285.2 731.4H174.6C111.6 731.4 64 681 64 620.8V395.3c0-60.2 50.4-110.6 110.6-110.6h105l201.6-158.2zM687 692.2c-12.6 0-21-5.6-26.6-12.6-18.2-18.2-18.2-39.2 0-54.6 65.8-65.8 65.8-165.2 0-231-18.2-18.2-18.2-39.2 0-54.6 18.2-18.2 39.2-18.2 57.4 0 102.2 92.4 102.2 242.2 0 336-15.4 14-18.2 16.8-30.8 16.8z m110.6 63c-18.2-18.2-18.2-39.2 0-54.6 105-105 105-270.2 0-375.2-18.2-18.2-18.2-39.2 0-54.6 18.2-18.2 39.2-18.2 57.4 0 65.8 65.8 105 149.8 105 236.6S920.8 683.8 855 744c-5.6 5.6-18.2 12.6-26.6 12.6-12.6 8.4-23.8 1.4-30.8-1.4z" /></svg>